Land_normalized_Precision Landing05_filtered_grf
version=1
nRows=20
nColumns=37
inDegrees=yes
endheader
time		1_ground_force_vx		1_ground_force_vy		1_ground_force_vz		1_ground_force_px		1_ground_force_py		1_ground_force_pz		1_ground_torque_x		1_ground_torque_y		1_ground_torque_z		2_ground_force_vx		2_ground_force_vy		2_ground_force_vz		2_ground_force_px		2_ground_force_py		2_ground_force_pz		2_ground_torque_x		2_ground_torque_y		2_ground_torque_z		3_ground_force_vx		3_ground_force_vy		3_ground_force_vz		3_ground_force_px		3_ground_force_py		3_ground_force_pz		3_ground_torque_x		3_ground_torque_y		3_ground_torque_z		4_ground_force_vx		4_ground_force_vy		4_ground_force_vz		4_ground_force_px		4_ground_force_py		4_ground_force_pz		4_ground_torque_x		4_ground_torque_y		4_ground_torque_z		
1.414500		-2.291611		-34.953226		-33.681820		0.097260		0.000000		0.240941		-0.018404		-0.280704		-0.270494		-1.865859		-26.298786		-16.692022		-0.203726		0.000000		0.204744		-0.124762		-1.758494		-1.116128		1.975079		-1.041037		-1.024081		0.352157		1.256215		1.892961		-0.025517		0.001041		0.007774		-5.506025		0.646616		-2.137047		-0.289077		1.264946		1.901357		-0.029710		0.003489		-0.011531		
1.417808		2.510546		-36.031241		-53.750028		0.116821		0.000000		0.178573		-0.008279		0.113319		0.170596		-4.471202		-34.583964		-36.979741		-0.251225		0.000000		0.150235		-0.311809		-2.412364		-2.578883		1.923652		-1.089412		-0.931441		0.352182		1.256223		1.892955		-0.022590		-0.003320		0.006563		-5.603012		0.613445		-2.108931		-0.289026		1.264940		1.901344		-0.029688		0.003250		-0.011174		
1.421116		9.177586		-10.970269		-52.411182		0.231134		0.000000		-0.236578		-0.118583		0.141582		0.677014		-5.535606		-22.834368		-47.140737		-0.308990		0.000000		0.006338		-0.261102		-1.082832		-2.222414		1.894863		-1.113194		-0.915772		0.352215		1.256230		1.892949		-0.018959		-0.007317		0.004020		-5.661596		0.545515		-2.078915		-0.288968		1.264931		1.901322		-0.029005		0.002795		-0.010650		
1.424424		14.875098		50.073788		-11.864162		0.096358		0.000000		0.383729		0.522566		1.764772		-0.411069		-2.451158		22.683871		-31.398790		-0.211339		0.000000		0.537769		0.203477		-1.919846		2.619689		1.889151		-1.115882		-0.997916		0.352252		1.256239		1.892943		-0.015569		-0.009439		0.000846		-5.680076		0.467378		-2.065254		-0.288907		1.264921		1.901296		-0.027749		0.002283		-0.010089		
1.427732		15.178265		148.497434		77.724525		0.089631		0.000000		0.285614		0.262379		2.552946		1.331370		7.560514		111.664256		23.783893		-0.157683		0.000000		0.287734		0.271991		3.982976		0.866874		1.900747		-1.112866		-1.158929		0.352290		1.256250		1.892938		-0.013341		-0.009063		-0.002322		-5.678515		0.405681		-2.080165		-0.288850		1.264913		1.901267		-0.026020		0.001859		-0.009532		
1.431040		5.595101		275.126375		208.743521		0.097501		0.000000		0.254551		0.034889		1.703684		1.292098		26.390147		245.787123		121.218740		-0.192052		0.000000		0.256367		1.642723		15.298713		7.545668		1.911439		-1.117890		-1.345192		0.352325		1.256262		1.892931		-0.012858		-0.006612		-0.005099		-5.683006		0.376081		-2.122626		-0.288804		1.264909		1.901242		-0.023931		0.001584		-0.008938		
1.434348		-16.311323		415.576290		352.867930		0.104042		0.000000		0.241114		-0.002007		0.064004		0.053974		54.274404		420.319286		247.180568		-0.205978		0.000000		0.252320		3.600136		27.880457		16.395960		1.893415		-1.133020		-1.492887		0.352357		1.256274		1.892923		-0.014124		-0.003234		-0.007273		-5.709490		0.377732		-2.174969		-0.288770		1.264907		1.901220		-0.021580		0.001428		-0.008220		
1.437657		-48.343642		561.303581		466.602075		0.108200		0.000000		0.240107		0.166052		-1.925121		-1.599842		89.040928		629.154582		369.988992		-0.208510		0.000000		0.262784		5.779627		40.838885		24.016716		1.822971		-1.151244		-1.558822		0.352385		1.256286		1.892911		-0.016482		-0.000189		-0.008761		-5.755340		0.396946		-2.207921		-0.288754		1.264906		1.901201		-0.019145		0.001320		-0.007344		
1.440965		-83.120662		720.531574		508.523555		0.108793		0.000000		0.251887		0.331248		-2.871647		-2.026926		126.090975		871.791710		448.878397		-0.202800		0.000000		0.283811		7.469393		51.643220		26.591663		1.695025		-1.167116		-1.538589		0.352415		1.256296		1.892898		-0.018912		0.001896		-0.009665		-5.800720		0.416834		-2.196495		-0.288754		1.264906		1.901183		-0.016951		0.001218		-0.006419		
1.444273		-109.809589		915.691171		457.225042		0.106054		0.000000		0.274355		-0.050223		0.421267		0.201878		158.382564		1149.656479		447.578905		-0.192211		0.000000		0.310617		7.607102		55.210351		21.507176		1.528192		-1.179629		-1.460390		0.352447		1.256305		1.892882		-0.020424		0.003371		-0.010180		-5.817975		0.424198		-2.135747		-0.288764		1.264905		1.901164		-0.015326		0.001117		-0.005626		
1.447581		-118.632397		1164.559917		323.893727		0.103829		0.000000		0.301340		-1.145804		11.257646		3.123388		178.306384		1450.348462		351.756628		-0.182150		0.000000		0.337488		5.631064		45.791214		11.118149		1.357300		-1.187060		-1.364608		0.352485		1.256312		1.892866		-0.020487		0.005140		-0.010219		-5.788159		0.413983		-2.046890		-0.288778		1.264903		1.901146		-0.014380		0.001028		-0.005086		
1.450889		-105.599256		1460.241599		147.930782		0.105134		0.000000		0.326518		-1.991759		27.561190		2.785634		181.385325		1735.564119		177.620387		-0.176894		0.000000		0.360074		2.421110		23.144790		2.384355		1.220812		-1.184601		-1.282429		0.352527		1.256320		1.892848		-0.019191		0.007714		-0.009082		-5.713117		0.389704		-1.964389		-0.288790		1.264902		1.901127		-0.014086		0.000961		-0.004843		
1.454197		-76.033889		1759.135116		-16.025933		0.108230		0.000000		0.345820		-1.864696		43.164264		-0.396100		169.642199		1945.632238		-26.072603		-0.176526		0.000000		0.375876		-0.402961		-4.646994		0.076553		1.149876		-1.169234		-1.227005		0.352572		1.256327		1.892829		-0.017145		0.010558		-0.005744		-5.618163		0.363643		-1.915613		-0.288792		1.264902		1.901111		-0.014515		0.000939		-0.004950		
1.457505		-43.140381		1991.698250		-118.466950		0.110912		0.000000		0.357862		-1.172669		54.140110		-3.220289		150.569937		2026.743366		-193.178650		-0.178367		0.000000		0.383452		-2.025951		-27.270745		2.599528		1.158165		-1.143226		-1.194737		0.352615		1.256333		1.892809		-0.015109		0.012413		0.000180		-5.539678		0.353665		-1.906076		-0.288781		1.264902		1.901096		-0.015879		0.001014		-0.005464		
1.460813		-22.102960		2091.329631		-129.001881		0.112356		0.000000		0.362587		-0.622507		58.902893		-3.633284		132.566273		1960.520420		-264.353707		-0.179594		0.000000		0.381555		-2.553472		-37.764939		5.092701		1.239452		-1.109747		-1.172512		0.352652		1.256335		1.892787		-0.013680		0.012155		0.007531		-5.507366		0.374975		-1.921595		-0.288752		1.264901		1.901084		-0.018172		0.001237		-0.006341		
1.464121		-21.653550		2034.024939		-47.148673		0.112079		0.000000		0.359939		-0.608273		57.141250		-1.324872		120.422056		1779.051523		-215.972957		-0.178300		0.000000		0.369219		-2.288151		-33.805625		4.105396		1.368394		-1.068737		-1.146293		0.352680		1.256333		1.892766		-0.013062		0.009491		0.013599		-5.530152		0.428049		-1.939848		-0.288712		1.264898		1.901073		-0.020764		0.001607		-0.007284		
1.467429		-39.148483		1847.925115		99.999255		0.109306		0.000000		0.348888		-1.045934		49.378943		2.671048		114.100026		1541.567647		-68.482328		-0.174282		0.000000		0.346175		-1.191409		-16.103396		0.721420		1.509620		-1.024274		-1.107507		0.352695		1.256326		1.892747		-0.013047		0.004952		0.015466		-5.594926		0.494720		-1.944216		-0.288666		1.264893		1.901063		-0.022593		0.001998		-0.007851		
1.470737		-61.893926		1596.662770		265.416775		0.103298		0.000000		0.327813		-1.431913		36.960965		6.138388		110.164166		1305.862118		123.389187		-0.170746		0.000000		0.314732		0.921637		10.902290		1.058581		1.626812		-0.998990		-1.055848		0.352695		1.256317		1.892737		-0.013171		-0.000344		0.011878		-5.672037		0.543542		-1.929554		-0.288623		1.264890		1.901060		-0.022822		0.002187		-0.007764		
1.474045		-75.577232		1347.782238		400.360573		0.094498		0.000000		0.296897		-1.276807		22.773753		6.762678		103.853964		1107.781293		297.581041		-0.172684		0.000000		0.280825		3.481804		37.136226		9.984730		1.696830		-1.033014		-1.002868		0.352681		1.256310		1.892733		-0.013040		-0.005159		0.004316		-5.728878		0.544019		-1.902134		-0.288592		1.264889		1.901064		-0.021370		0.002029		-0.007096		
1.477354		-73.239827		1149.308753		472.260567		0.084552		0.000000		0.261833		-0.755262		11.852315		4.867531		90.787752		961.441967		410.074186		-0.178517		0.000000		0.252461		5.022090		53.188951		22.697067		1.719442		-1.157415		-0.970464		0.352657		1.256307		1.892735		-0.012593		-0.008552		-0.003879		-5.746199		0.481321		-1.876036		-0.288579		1.264894		1.901077		-0.018901		0.001583		-0.006171		
